<svg xmlns="http://www.w3.org/2000/svg" viewBox="0 0 144 144" role="img">
  <rect x="28" y="20" width="88" height="108" rx="8" fill="#f8fbfd" stroke="#0b2035" stroke-width="4"/>
  <path d="M51 20v-4c0-4 3-7 7-7h4c4 0 7 3 7 7v4h10c4 0 7 3 7 7v7H44v-7c0-4 3-7 7-7Z" fill="#f7fafc" stroke="#0b2035" stroke-width="4" stroke-linejoin="round"/>
  <path d="m43 57 8 8 14-17m-22 36 8 8 14-17" fill="none" stroke="#2868c9" stroke-width="5" stroke-linecap="round" stroke-linejoin="round"/>
  <path d="M78 58h24M78 91h24M43 113h24M78 113h24" fill="none" stroke="#0b2035" stroke-width="4" stroke-linecap="round"/>
</svg>
